<mxfile host="Electron" modified="2024-05-25T19:09:32.032Z" agent="Mozilla/5.0 (Windows NT 10.0; Win64; x64) AppleWebKit/537.36 (KHTML, like Gecko) draw.io/21.2.1 Chrome/112.0.5615.87 Electron/24.1.2 Safari/537.36" etag="ILeoLugK2-1uLDqVI-mH" version="21.2.1" type="device">
  <diagram name="Seite-1" id="rpfmd2Ks3ffDalcANGvh">
    <mxGraphModel dx="1036" dy="606" grid="1" gridSize="10" guides="1" tooltips="1" connect="1" arrows="1" fold="1" page="1" pageScale="1" pageWidth="827" pageHeight="1169" math="0" shadow="0">
      <root>
        <mxCell id="0" />
        <mxCell id="1" parent="0" />
        <mxCell id="oKd342DAjf-iO3vQOo4u-2" value="&lt;b&gt;Sensor&lt;br&gt;&lt;/b&gt;(Custom)" style="rounded=0;whiteSpace=wrap;html=1;" parent="1" vertex="1">
          <mxGeometry x="153" y="236" width="120" height="60" as="geometry" />
        </mxCell>
        <mxCell id="oKd342DAjf-iO3vQOo4u-3" value="&lt;b&gt;HUB&lt;br&gt;&lt;/b&gt;(Raspberry Pi)" style="rounded=0;whiteSpace=wrap;html=1;" parent="1" vertex="1">
          <mxGeometry x="353" y="236" width="120" height="60" as="geometry" />
        </mxCell>
        <mxCell id="oKd342DAjf-iO3vQOo4u-4" value="&lt;b&gt;Wassersteuerung&lt;br&gt;&lt;/b&gt;(Custom)" style="rounded=0;whiteSpace=wrap;html=1;" parent="1" vertex="1">
          <mxGeometry x="553" y="236" width="120" height="60" as="geometry" />
        </mxCell>
        <mxCell id="oKd342DAjf-iO3vQOo4u-6" value="" style="endArrow=none;dashed=1;html=1;dashPattern=1 3;strokeWidth=2;rounded=0;entryX=0.5;entryY=1;entryDx=0;entryDy=0;edgeStyle=orthogonalEdgeStyle;" parent="1" edge="1">
          <mxGeometry width="50" height="50" relative="1" as="geometry">
            <mxPoint x="413" y="396" as="sourcePoint" />
            <mxPoint x="213" y="296" as="targetPoint" />
          </mxGeometry>
        </mxCell>
        <mxCell id="oKd342DAjf-iO3vQOo4u-7" value="" style="endArrow=none;dashed=1;html=1;dashPattern=1 3;strokeWidth=2;rounded=0;entryX=0.5;entryY=1;entryDx=0;entryDy=0;edgeStyle=orthogonalEdgeStyle;" parent="1" edge="1">
          <mxGeometry width="50" height="50" relative="1" as="geometry">
            <mxPoint x="411" y="396" as="sourcePoint" />
            <mxPoint x="611" y="296" as="targetPoint" />
          </mxGeometry>
        </mxCell>
        <mxCell id="oKd342DAjf-iO3vQOo4u-8" value="" style="endArrow=none;dashed=1;html=1;dashPattern=1 3;strokeWidth=2;rounded=0;entryX=0.5;entryY=1;entryDx=0;entryDy=0;edgeStyle=orthogonalEdgeStyle;" parent="1" edge="1">
          <mxGeometry width="50" height="50" relative="1" as="geometry">
            <mxPoint x="412" y="397" as="sourcePoint" />
            <mxPoint x="412" y="297" as="targetPoint" />
          </mxGeometry>
        </mxCell>
        <mxCell id="oKd342DAjf-iO3vQOo4u-9" value="Netzwerkverbindung&lt;br&gt;WLAN" style="text;html=1;strokeColor=none;fillColor=none;align=center;verticalAlign=middle;whiteSpace=wrap;rounded=0;" parent="1" vertex="1">
          <mxGeometry x="324.5" y="404" width="177" height="30" as="geometry" />
        </mxCell>
        <mxCell id="oKd342DAjf-iO3vQOo4u-10" value="" style="endArrow=classic;startArrow=classic;html=1;rounded=0;dashed=1;" parent="1" edge="1">
          <mxGeometry width="50" height="50" relative="1" as="geometry">
            <mxPoint x="288" y="266" as="sourcePoint" />
            <mxPoint x="338" y="266" as="targetPoint" />
          </mxGeometry>
        </mxCell>
        <mxCell id="oKd342DAjf-iO3vQOo4u-11" value="" style="endArrow=classic;startArrow=classic;html=1;rounded=0;dashed=1;" parent="1" edge="1">
          <mxGeometry width="50" height="50" relative="1" as="geometry">
            <mxPoint x="487" y="265.66" as="sourcePoint" />
            <mxPoint x="537" y="265.66" as="targetPoint" />
          </mxGeometry>
        </mxCell>
      </root>
    </mxGraphModel>
  </diagram>
</mxfile>
